<svg width="354" height="331" viewBox="0 0 354 331" fill="none" xmlns="http://www.w3.org/2000/svg">
<rect width="354" height="331" fill="#D5DCFF"/>
<path d="M77.2864 149L76.1664 146.408H70.5664L69.4624 149H67.3184L72.3584 137.8H74.4064L79.4624 149H77.2864ZM71.2704 144.776H75.4784L73.3664 139.88L71.2704 144.776ZM86.9847 137.128H88.9847V149H87.0647V147.896C86.3927 148.712 85.4007 149.112 84.2327 149.112C81.7527 149.112 79.9127 147.384 79.9127 144.728C79.9127 142.072 81.7527 140.36 84.2327 140.36C85.3367 140.36 86.3127 140.728 86.9847 141.512V137.128ZM84.4727 147.4C85.9127 147.4 87.0167 146.36 87.0167 144.728C87.0167 143.096 85.9127 142.056 84.4727 142.056C83.0327 142.056 81.9287 143.096 81.9287 144.728C81.9287 146.36 83.0327 147.4 84.4727 147.4ZM97.6811 140.456H99.6011L95.9371 149H93.8731L90.2091 140.456H92.2891L94.9451 146.792L97.6811 140.456ZM108.649 144.776C108.649 144.936 108.633 145.176 108.617 145.368H101.913C102.153 146.616 103.193 147.416 104.681 147.416C105.641 147.416 106.393 147.112 107.001 146.488L108.073 147.72C107.305 148.632 106.105 149.112 104.633 149.112C101.769 149.112 99.9127 147.272 99.9127 144.728C99.9127 142.184 101.785 140.36 104.329 140.36C106.825 140.36 108.649 142.104 108.649 144.776ZM104.329 141.96C103.033 141.96 102.089 142.792 101.897 144.04H106.745C106.585 142.808 105.641 141.96 104.329 141.96ZM112.474 141.704C113.05 140.808 114.09 140.36 115.514 140.36V142.264C115.338 142.232 115.194 142.216 115.05 142.216C113.53 142.216 112.57 143.112 112.57 144.856V149H110.57V140.456H112.474V141.704ZM122.099 147.112L122.659 148.536C122.179 148.92 121.459 149.112 120.739 149.112C118.867 149.112 117.795 148.12 117.795 146.232V142.12H116.387V140.52H117.795V138.568H119.795V140.52H122.083V142.12H119.795V146.184C119.795 147.016 120.211 147.464 120.979 147.464C121.395 147.464 121.795 147.352 122.099 147.112ZM125.312 139.048C124.576 139.048 124.032 138.52 124.032 137.848C124.032 137.176 124.576 136.648 125.312 136.648C126.048 136.648 126.592 137.144 126.592 137.8C126.592 138.504 126.064 139.048 125.312 139.048ZM124.304 149V140.456H126.304V149H124.304ZM131.569 149.112C130.145 149.112 128.721 148.696 127.953 148.152L128.721 146.632C129.473 147.128 130.625 147.48 131.697 147.48C132.961 147.48 133.489 147.128 133.489 146.536C133.489 144.904 128.209 146.44 128.209 143.032C128.209 141.416 129.665 140.36 131.969 140.36C133.105 140.36 134.401 140.632 135.169 141.096L134.401 142.616C133.585 142.136 132.769 141.976 131.953 141.976C130.737 141.976 130.161 142.376 130.161 142.936C130.161 144.664 135.441 143.128 135.441 146.472C135.441 148.072 133.969 149.112 131.569 149.112ZM145.196 144.776C145.196 144.936 145.18 145.176 145.164 145.368H138.46C138.7 146.616 139.74 147.416 141.228 147.416C142.188 147.416 142.94 147.112 143.548 146.488L144.62 147.72C143.852 148.632 142.652 149.112 141.18 149.112C138.316 149.112 136.46 147.272 136.46 144.728C136.46 142.184 138.332 140.36 140.876 140.36C143.372 140.36 145.196 142.104 145.196 144.776ZM140.876 141.96C139.58 141.96 138.636 142.792 138.444 144.04H143.292C143.132 142.808 142.188 141.96 140.876 141.96ZM157.901 140.36C159.965 140.36 161.405 141.528 161.405 144.104V149H159.405V144.36C159.405 142.84 158.701 142.104 157.485 142.104C156.173 142.104 155.261 142.968 155.261 144.664V149H153.261V144.36C153.261 142.84 152.557 142.104 151.341 142.104C150.013 142.104 149.117 142.968 149.117 144.664V149H147.117V140.456H149.021V141.544C149.661 140.776 150.653 140.36 151.821 140.36C153.069 140.36 154.109 140.824 154.701 141.784C155.389 140.904 156.541 140.36 157.901 140.36ZM172.071 144.776C172.071 144.936 172.055 145.176 172.039 145.368H165.335C165.575 146.616 166.615 147.416 168.103 147.416C169.063 147.416 169.815 147.112 170.423 146.488L171.495 147.72C170.727 148.632 169.527 149.112 168.055 149.112C165.191 149.112 163.335 147.272 163.335 144.728C163.335 142.184 165.207 140.36 167.751 140.36C170.247 140.36 172.071 142.104 172.071 144.776ZM167.751 141.96C166.455 141.96 165.511 142.792 165.319 144.04H170.167C170.007 142.808 169.063 141.96 167.751 141.96ZM178.84 140.36C180.888 140.36 182.408 141.528 182.408 144.104V149H180.408V144.36C180.408 142.84 179.656 142.104 178.376 142.104C176.952 142.104 175.992 142.968 175.992 144.68V149H173.992V140.456H175.896V141.56C176.552 140.776 177.592 140.36 178.84 140.36ZM189.521 147.112L190.081 148.536C189.601 148.92 188.881 149.112 188.161 149.112C186.289 149.112 185.217 148.12 185.217 146.232V142.12H183.809V140.52H185.217V138.568H187.217V140.52H189.505V142.12H187.217V146.184C187.217 147.016 187.633 147.464 188.401 147.464C188.817 147.464 189.217 147.352 189.521 147.112ZM200.948 137.8C203.892 137.8 205.716 139.304 205.716 141.784C205.716 144.248 203.892 145.768 200.948 145.768H198.42V149H196.34V137.8H200.948ZM200.852 144.008C202.676 144.008 203.62 143.192 203.62 141.784C203.62 140.376 202.676 139.56 200.852 139.56H198.42V144.008H200.852ZM207.757 149V137.128H209.757V149H207.757ZM215.646 140.36C218.11 140.36 219.534 141.528 219.534 143.992V149H217.646V147.96C217.166 148.696 216.238 149.112 214.958 149.112C213.006 149.112 211.774 148.04 211.774 146.552C211.774 145.128 212.734 144.008 215.326 144.008H217.534V143.88C217.534 142.712 216.83 142.024 215.406 142.024C214.446 142.024 213.454 142.344 212.814 142.872L212.03 141.416C212.942 140.712 214.27 140.36 215.646 140.36ZM215.374 147.656C216.35 147.656 217.198 147.208 217.534 146.328V145.336H215.47C214.11 145.336 213.742 145.848 213.742 146.472C213.742 147.192 214.35 147.656 215.374 147.656ZM226.099 149.112C223.395 149.112 221.475 147.288 221.475 144.728C221.475 142.168 223.395 140.36 226.099 140.36C227.763 140.36 229.091 141.048 229.747 142.344L228.211 143.24C227.699 142.424 226.931 142.056 226.083 142.056C224.611 142.056 223.491 143.08 223.491 144.728C223.491 146.392 224.611 147.4 226.083 147.4C226.931 147.4 227.699 147.032 228.211 146.216L229.747 147.112C229.091 148.392 227.763 149.112 226.099 149.112ZM239.383 144.776C239.383 144.936 239.367 145.176 239.351 145.368H232.647C232.887 146.616 233.927 147.416 235.415 147.416C236.375 147.416 237.127 147.112 237.735 146.488L238.807 147.72C238.039 148.632 236.839 149.112 235.367 149.112C232.503 149.112 230.647 147.272 230.647 144.728C230.647 142.184 232.519 140.36 235.063 140.36C237.559 140.36 239.383 142.104 239.383 144.776ZM235.063 141.96C233.767 141.96 232.823 142.792 232.631 144.04H237.479C237.319 142.808 236.375 141.96 235.063 141.96ZM252.088 140.36C254.152 140.36 255.592 141.528 255.592 144.104V149H253.592V144.36C253.592 142.84 252.888 142.104 251.672 142.104C250.36 142.104 249.448 142.968 249.448 144.664V149H247.448V144.36C247.448 142.84 246.744 142.104 245.528 142.104C244.2 142.104 243.304 142.968 243.304 144.664V149H241.304V140.456H243.208V141.544C243.848 140.776 244.84 140.36 246.008 140.36C247.256 140.36 248.296 140.824 248.888 141.784C249.576 140.904 250.728 140.36 252.088 140.36ZM266.258 144.776C266.258 144.936 266.242 145.176 266.226 145.368H259.522C259.762 146.616 260.802 147.416 262.29 147.416C263.25 147.416 264.002 147.112 264.61 146.488L265.682 147.72C264.914 148.632 263.714 149.112 262.242 149.112C259.378 149.112 257.522 147.272 257.522 144.728C257.522 142.184 259.394 140.36 261.938 140.36C264.434 140.36 266.258 142.104 266.258 144.776ZM261.938 141.96C260.642 141.96 259.698 142.792 259.506 144.04H264.354C264.194 142.808 263.25 141.96 261.938 141.96ZM273.027 140.36C275.075 140.36 276.595 141.528 276.595 144.104V149H274.595V144.36C274.595 142.84 273.843 142.104 272.563 142.104C271.139 142.104 270.179 142.968 270.179 144.68V149H268.179V140.456H270.083V141.56C270.739 140.776 271.779 140.36 273.027 140.36ZM283.708 147.112L284.268 148.536C283.788 148.92 283.068 149.112 282.348 149.112C280.476 149.112 279.404 148.12 279.404 146.232V142.12H277.996V140.52H279.404V138.568H281.404V140.52H283.692V142.12H281.404V146.184C281.404 147.016 281.82 147.464 282.588 147.464C283.004 147.464 283.404 147.352 283.708 147.112Z" fill="black"/>
<path d="M135.147 183.78C137.787 184.12 139.127 185.7 139.127 187.8C139.127 190.16 137.347 192.2 133.587 192.2C131.607 192.2 129.627 191.6 128.327 190.58L129.447 188.56C130.447 189.4 131.967 189.94 133.547 189.94C135.407 189.94 136.507 189.12 136.507 187.82C136.507 186.56 135.587 185.74 133.467 185.74H132.187V183.96L135.367 180.18H129.007V178H138.547V179.74L135.147 183.78ZM146.69 183.78C149.33 184.12 150.67 185.7 150.67 187.8C150.67 190.16 148.89 192.2 145.13 192.2C143.15 192.2 141.17 191.6 139.87 190.58L140.99 188.56C141.99 189.4 143.51 189.94 145.09 189.94C146.95 189.94 148.05 189.12 148.05 187.82C148.05 186.56 147.13 185.74 145.01 185.74H143.73V183.96L146.91 180.18H140.55V178H150.09V179.74L146.69 183.78ZM158.73 183.36C161.49 183.36 163.55 185.04 163.55 187.66C163.55 190.44 161.29 192.2 158.43 192.2C154.61 192.2 152.37 189.74 152.37 185.24C152.37 180.44 155.17 177.8 159.23 177.8C160.63 177.8 161.97 178.1 162.91 178.7L161.95 180.66C161.19 180.16 160.27 179.98 159.29 179.98C156.65 179.98 154.99 181.62 154.99 184.8V184.82C155.83 183.84 157.17 183.36 158.73 183.36ZM158.29 190.16C159.91 190.16 161.03 189.24 161.03 187.78C161.03 186.32 159.93 185.4 158.23 185.4C156.55 185.4 155.39 186.42 155.39 187.8C155.39 189.12 156.43 190.16 158.29 190.16ZM180.817 192H177.997L175.257 188.3L172.497 192H169.737L173.897 186.58L169.917 181.32H172.697L175.317 184.82L177.937 181.32H180.637L176.637 186.54L180.817 192ZM190.969 189.8H197.569V192H187.249V190.26L192.809 184.98C194.169 183.68 194.409 182.86 194.409 182.08C194.409 180.8 193.529 180.06 191.809 180.06C190.449 180.06 189.309 180.52 188.529 181.52L186.709 180.12C187.789 178.66 189.729 177.8 192.029 177.8C195.069 177.8 197.029 179.34 197.029 181.82C197.029 183.18 196.649 184.42 194.709 186.24L190.969 189.8ZM208.149 184.64C209.609 185.3 210.429 186.44 210.429 187.98C210.429 190.58 208.169 192.2 204.689 192.2C201.209 192.2 198.989 190.58 198.989 187.98C198.989 186.44 199.789 185.3 201.229 184.64C200.109 184.02 199.489 183.02 199.489 181.7C199.489 179.3 201.589 177.8 204.689 177.8C207.809 177.8 209.929 179.3 209.929 181.7C209.929 183.02 209.289 184.02 208.149 184.64ZM204.689 179.84C203.089 179.84 202.049 180.56 202.049 181.82C202.049 183.02 203.049 183.78 204.689 183.78C206.349 183.78 207.369 183.02 207.369 181.82C207.369 180.56 206.289 179.84 204.689 179.84ZM204.689 190.16C206.609 190.16 207.809 189.32 207.809 187.9C207.809 186.52 206.609 185.66 204.689 185.66C202.769 185.66 201.609 186.52 201.609 187.9C201.609 189.32 202.769 190.16 204.689 190.16ZM217.956 192.2C214.636 192.2 212.116 189.6 212.116 185C212.116 180.4 214.636 177.8 217.956 177.8C221.296 177.8 223.816 180.4 223.816 185C223.816 189.6 221.296 192.2 217.956 192.2ZM217.956 189.94C219.876 189.94 221.196 188.38 221.196 185C221.196 181.62 219.876 180.06 217.956 180.06C216.056 180.06 214.736 181.62 214.736 185C214.736 188.38 216.056 189.94 217.956 189.94Z" fill="black"/>
</svg>
