<svg width="1200" height="387" viewBox="0 0 1200 387" fill="none" xmlns="http://www.w3.org/2000/svg">
<path d="M188 263.769C289.068 263.769 371 232.429 371 193.769C371 155.109 289.068 123.769 188 123.769C86.9319 123.769 5 155.109 5 193.769C5 232.429 86.9319 263.769 188 263.769Z" stroke="black" stroke-width="10"/>
<path d="M127.127 228.315C177.652 315.827 245.698 371.13 279.112 351.839C312.525 332.548 298.654 245.966 248.129 158.454C197.604 70.9425 129.558 15.6388 96.1444 34.9301C62.7307 54.2215 76.6022 140.803 127.127 228.315Z" stroke="black" stroke-width="10"/>
<path d="M127.127 158.454C76.6022 245.966 62.7307 332.548 96.1444 351.839C129.558 371.13 197.604 315.827 248.129 228.315C298.654 140.803 312.525 54.2215 279.112 34.9301C245.698 15.6387 177.652 70.9424 127.127 158.454Z" stroke="black" stroke-width="10"/>
<path d="M150.936 193.091C150.936 207.637 159.389 220.207 171.647 226.164L154.118 178.136C152.079 182.706 150.936 187.764 150.936 193.091Z" fill="black"/>
<path d="M212.493 191.237C212.493 186.695 210.862 183.55 209.463 181.102C207.6 178.075 205.854 175.512 205.854 172.485C205.854 169.107 208.416 165.962 212.025 165.962C212.188 165.962 212.342 165.982 212.501 165.991C205.963 160.002 197.252 156.345 187.685 156.345C174.847 156.345 163.551 162.932 156.98 172.908C157.843 172.934 158.655 172.952 159.345 172.952C163.189 172.952 169.139 172.486 169.139 172.486C171.12 172.369 171.354 175.279 169.375 175.513C169.375 175.513 167.384 175.747 165.169 175.863L178.551 215.668L186.593 191.549L180.868 175.862C178.889 175.746 177.014 175.512 177.014 175.512C175.034 175.396 175.266 172.368 177.246 172.485C177.246 172.485 183.315 172.951 186.926 172.951C190.769 172.951 196.72 172.485 196.72 172.485C198.703 172.368 198.935 175.277 196.956 175.512C196.956 175.512 194.961 175.746 192.75 175.862L206.03 215.365L209.696 203.116C211.284 198.034 212.493 194.383 212.493 191.237Z" fill="black"/>
<path d="M188.33 196.306L177.304 228.344C180.596 229.312 184.077 229.842 187.685 229.842C191.964 229.842 196.068 229.102 199.888 227.758C199.79 227.601 199.7 227.434 199.627 227.252L188.33 196.306Z" fill="black"/>
<path d="M219.931 175.461C220.089 176.631 220.178 177.888 220.178 179.239C220.178 182.968 219.482 187.16 217.384 192.402L206.159 224.856C217.084 218.485 224.432 206.649 224.432 193.092C224.433 186.703 222.801 180.695 219.931 175.461Z" fill="black"/>
<path d="M187.685 150.256C164.065 150.256 144.847 169.472 144.847 193.091C144.847 216.714 164.065 235.929 187.685 235.929C211.305 235.929 230.525 216.714 230.525 193.091C230.524 169.472 211.305 150.256 187.685 150.256ZM187.685 233.966C165.148 233.966 146.811 215.629 146.811 193.091C146.811 170.555 165.147 152.22 187.685 152.22C210.221 152.22 228.557 170.555 228.557 193.091C228.557 215.629 210.221 233.966 187.685 233.966Z" fill="black"/>
<path d="M529.6 159H545.1L522.2 229H504.8L489.4 181.6L473.5 229H456.2L433.2 159H450L465.8 208.2L482.3 159H497.3L513.3 208.6L529.6 159ZM584.444 159C603.144 159 614.844 168.7 614.844 184.4C614.844 200 603.144 209.7 584.444 209.7H570.344V229H554.144V159H584.444ZM583.544 196.5C593.444 196.5 598.444 192 598.444 184.4C598.444 176.7 593.444 172.2 583.544 172.2H570.344V196.5H583.544ZM728.006 176.4H734.506L714.606 229H707.906L691.306 185.9L674.706 229H668.006L648.206 176.4H655.006L671.506 221.1L688.406 176.4H694.506L711.306 221.1L728.006 176.4ZM748.797 164.9C745.897 164.9 743.597 162.6 743.597 159.8C743.597 157.1 745.897 154.8 748.797 154.8C751.697 154.8 753.997 157 753.997 159.7C753.997 162.6 751.797 164.9 748.797 164.9ZM745.197 229V176.4H752.297V229H745.197ZM797.252 220.7L799.752 225.8C796.952 228.3 792.752 229.5 788.652 229.5C778.752 229.5 773.252 223.9 773.252 214.2V182.4H763.852V176.4H773.252V164.9H780.352V176.4H796.352V182.4H780.352V213.8C780.352 220 783.552 223.4 789.452 223.4C792.352 223.4 795.252 222.5 797.252 220.7ZM839.477 176C852.277 176 861.077 183.4 861.077 198.5V229H853.977V199.2C853.977 188.1 848.177 182.4 838.177 182.4C826.877 182.4 819.777 189.4 819.777 201.4V229H812.677V154.8H819.777V185.6C823.677 179.5 830.577 176 839.477 176ZM969.073 229H951.673L938.173 209.5H937.373H923.273V229H907.073V159H937.373C956.073 159 967.773 168.7 967.773 184.4C967.773 194.9 962.473 202.6 953.373 206.5L969.073 229ZM951.373 184.4C951.373 176.7 946.373 172.2 936.473 172.2H923.273V196.6H936.473C946.373 196.6 951.373 192 951.373 184.4ZM1032.21 202.3C1032.21 203.5 1032.01 205.2 1031.91 206.5H991.209C992.709 213.2 998.409 217.3 1006.61 217.3C1012.31 217.3 1016.41 215.6 1020.11 212.1L1028.41 221.1C1023.41 226.8 1015.91 229.8 1006.21 229.8C987.609 229.8 975.509 218.1 975.509 202.1C975.509 186 987.809 174.4 1004.21 174.4C1020.01 174.4 1032.21 185 1032.21 202.3ZM1004.31 186.2C997.209 186.2 992.109 190.5 991.009 197.4H1017.51C1016.41 190.6 1011.31 186.2 1004.31 186.2ZM1062.83 174.4C1079.23 174.4 1088.73 182 1088.73 198.3V229H1074.13V222.3C1071.23 227.2 1065.63 229.8 1057.73 229.8C1045.13 229.8 1037.63 222.8 1037.63 213.5C1037.63 204 1044.33 197.4 1060.73 197.4H1073.13C1073.13 190.7 1069.13 186.8 1060.73 186.8C1055.03 186.8 1049.13 188.7 1045.23 191.8L1039.63 180.9C1045.53 176.7 1054.23 174.4 1062.83 174.4ZM1061.63 219.3C1066.83 219.3 1071.33 216.9 1073.13 212V206.5H1062.43C1055.13 206.5 1052.83 209.2 1052.83 212.8C1052.83 216.7 1056.13 219.3 1061.63 219.3ZM1129.43 229.8C1111.93 229.8 1099.43 218.3 1099.43 202.1C1099.43 185.9 1111.93 174.4 1129.43 174.4C1140.73 174.4 1149.63 179.3 1153.53 188.1L1141.43 194.6C1138.53 189.5 1134.23 187.2 1129.33 187.2C1121.43 187.2 1115.23 192.7 1115.23 202.1C1115.23 211.5 1121.43 217 1129.33 217C1134.23 217 1138.53 214.8 1141.43 209.6L1153.53 216.2C1149.63 224.8 1140.73 229.8 1129.43 229.8ZM1193.8 215.4L1198 226.4C1194.8 228.7 1190.1 229.8 1185.3 229.8C1172.6 229.8 1165.2 223.3 1165.2 210.5V188.4H1156.9V176.4H1165.2V163.3H1180.8V176.4H1194.2V188.4H1180.8V210.3C1180.8 214.9 1183.3 217.4 1187.5 217.4C1189.8 217.4 1192.1 216.7 1193.8 215.4Z" fill="black"/>
</svg>
