<svg width="29" height="20" viewBox="0 0 29 20" fill="none" xmlns="http://www.w3.org/2000/svg">
<path d="M0.999917 0C0.447459 0 0 0.447826 0 0.99992C0 1.55203 0.447825 1.99984 0.999917 1.99984H28.0001C28.5525 1.99984 29 1.55201 29 0.99992C29 0.44746 28.5522 0 28.0001 0H0.999917ZM0.999917 9.00008C0.447459 9.00008 0 9.44791 0 10C0 10.5521 0.447825 10.9999 0.999917 10.9999H28.0001C28.5525 10.9999 29 10.5521 29 10C29 9.44754 28.5522 9.00008 28.0001 9.00008H0.999917ZM0.999917 18.0002C0.447459 18.0002 0 18.448 0 19.0001C0 19.5522 0.447825 20 0.999917 20H28.0001C28.5525 20 29 19.5522 29 19.0001C29 18.4476 28.5522 18.0002 28.0001 18.0002H0.999917Z" fill="white"/>
</svg>
