<svg width="31" height="31" viewBox="0 0 31 31" fill="none" xmlns="http://www.w3.org/2000/svg">
<path d="M13.3584 23.3592C7.92157 23.3592 3.4991 18.9391 3.4991 13.5057C3.4991 8.0688 7.92157 3.64638 13.3584 3.64638C18.7953 3.64638 23.2189 8.0688 23.2189 13.5057C23.2189 18.9391 18.7953 23.3592 13.3584 23.3592ZM30.2798 28.4522L23.2499 21.4223C25.0419 19.1829 26.0276 16.3777 26.0276 13.5057C26.0276 6.52066 20.3446 0.837648 13.3584 0.837648C6.37341 0.837648 0.69043 6.52066 0.69043 13.5057C0.69043 20.4918 6.37341 26.1749 13.3584 26.1749C16.2316 26.1749 19.0346 25.1915 21.2682 23.4029L28.2992 30.427C28.5638 30.6916 28.9157 30.8376 29.2895 30.8376C29.6622 30.8376 30.0141 30.6916 30.2787 30.427C30.5444 30.1648 30.6904 29.814 30.6904 29.4391C30.6904 29.0641 30.5444 28.7145 30.2798 28.4522Z" fill="white"/>
</svg>
